<svg width="90" height="42" viewBox="0 0 90 42" fill="none" xmlns="http://www.w3.org/2000/svg">
<path d="M37.423 28L38.767 24.892H45.802L47.125 28H50.737L44.542 13.93H40.048L33.895 28H37.423ZM41.308 18.991L42.169 16.807H42.4L43.261 18.991L44.584 22.057H39.985L41.308 18.991ZM56.0288 28.21C58.4648 28.21 59.8088 27.013 60.1658 25.165H60.3338V31.57H63.4838V17.479H60.5438V20.356H60.3338C59.9558 18.34 58.6118 17.269 56.1338 17.269C52.8998 17.269 51.0938 19.411 51.0938 22.75C51.0938 26.089 52.8788 28.21 56.0288 28.21ZM54.2858 22.75C54.2858 20.818 55.2308 20.167 57.2468 20.167C59.2628 20.167 60.3338 20.86 60.3338 22.729V22.897C60.3338 24.703 59.2418 25.333 57.2468 25.333C55.2308 25.333 54.2858 24.661 54.2858 22.75ZM69.4975 28.21C72.2695 28.21 73.5505 26.551 73.8235 24.787H73.9915V28H76.9315V17.479H73.7815V22.813C73.7815 24.598 73.0465 25.396 70.9885 25.396C68.9935 25.396 68.2795 24.682 68.2795 22.981V17.479H65.1295V24.031C65.1295 26.383 66.5365 28.21 69.4975 28.21ZM81.7761 28.21C84.1071 28.21 85.5771 27.223 86.0601 25.585H86.2281V28H89.1681V21.826C89.1681 19.075 87.5091 17.269 84.0021 17.269C80.5371 17.269 78.3531 19.075 78.3531 21.679V21.742H81.5241V21.658C81.5241 20.461 82.1751 20.041 83.7711 20.041C85.4511 20.041 86.0601 20.419 86.0601 21.784V22.183L81.5451 22.645C79.2981 22.876 78.1431 23.842 78.1431 25.396C78.1431 27.16 79.5081 28.21 81.7761 28.21ZM81.3141 25.186C81.3141 24.682 81.6501 24.472 82.4061 24.409L86.0601 23.989C85.9761 25.48 84.8211 25.984 82.6791 25.984C81.7551 25.984 81.3141 25.753 81.3141 25.186Z" fill="white"/>
<circle cx="21" cy="21" r="21" fill="url(#paint0_radial_1_496)"/>
<defs>
<radialGradient id="paint0_radial_1_496" cx="0" cy="0" r="1" gradientUnits="userSpaceOnUse" gradientTransform="translate(42 2.50339e-06) rotate(135) scale(59.397)">
<stop stop-color="#0047FF"/>
<stop offset="0.383312" stop-color="#3B4CEE"/>
<stop offset="0.630208" stop-color="#0788FF"/>
<stop offset="1" stop-color="#005AFF"/>
</radialGradient>
</defs>
</svg>
